<?xml version="1.0" encoding="iso-8859-1"?>
<!-- Generator: Adobe Illustrator 18.1.1, SVG Export Plug-In . SVG Version: 6.00 Build 0)  -->
<svg version="1.1" id="Capa_1" xmlns="http://www.w3.org/2000/svg" xmlns:xlink="http://www.w3.org/1999/xlink" x="0px" y="0px"
	 viewBox="0 0 431.805 431.805" style="enable-background:new 0 0 431.805 431.805;" xml:space="preserve">
<g>
	<g id="Layer_1_51_">
		<g>
			<path d="M101.114,138.405c12.849-9.584,19.831-25.965,18.22-42.752c-1.069-11.125-6.144-21.666-13.974-29.602
				c3.449-12.342-5.526-16.271-13.051-20.002c-26.335-13.055-52.804,8.867-52.804,8.867c-35.646,29.24-27.457,52.498-14.881,66.504
				l1.675,1.963c0.371,0.434,9.246,10.736,22.671,17.848C67.47,151.03,85.5,150.053,101.114,138.405z M92.693,86.819
				c8.188-8.395,8.112-10.76,8.112-10.76c4.729,5.857,7.76,13.041,8.483,20.559c1.096,11.418-3.008,22.936-10.632,30.59
				c-12.951-0.689-26.548-7.482-35.667-13.051C62.989,114.157,87.44,92.204,92.693,86.819z M36.708,102.446
				c-0.128,0.328-0.384,0.59-0.696,0.701c-3.214,1.16-6.23,2.834-8.937,4.918c-0.436,0.332-0.946,0.219-1.208-0.305
				c-2.543-5.066-2.911-10.477-2.496-15.842c0.031-0.389,0.223-0.834,0.488-1.184c0.264-0.354,0.595-0.592,0.906-0.666
				c3.006-0.721,6.088-1.121,9.179-1.18c0.529-0.01,0.83,0.441,0.798,0.998c-0.221,3.91,0.014,7.883,1.928,11.574
				c0.041,0.076,0.071,0.158,0.092,0.244C36.822,101.944,36.804,102.206,36.708,102.446z M44.892,69.833
				c-0.053,0.07-0.119,0.139-0.182,0.207c-3.03,3.209-5.488,6.637-7.43,10.602c-0.16,0.324-0.43,0.654-0.763,0.881
				c-0.333,0.225-0.698,0.338-1.01,0.309c-3.205-0.291-4.875-0.297-8.277,0.012c-0.329,0.029-0.582-0.105-0.695-0.379
				c-0.113-0.273-0.077-0.674,0.117-1.068c2.357-4.83,5.424-9.088,9.158-12.949c0.587-0.604,1.519-0.957,2.113-0.83
				c2.821,0.598,4.18,0.988,6.768,1.93c0.299,0.107,0.467,0.33,0.466,0.611C45.157,69.37,45.063,69.606,44.892,69.833z
				 M55.283,121.274c7.523,4.811,18.767,10.984,30.881,14.098c-9.993,4.023-20.793,3.059-32.234-2.936
				c-2.318-1.215-4.49-2.551-6.489-3.916L55.283,121.274z"/>
			<path d="M171.182,6.559c-2.457-3.148-6.005-5.463-10.229-6.26c-9.247-1.746-18.158,4.336-19.903,13.584l-18.944,104.338
				c-1.143,3.971-4.75,18.5-29.835,32.076L38.38,210.531c-5.938,6.664-5.774,16.926,0.595,23.354
				c6.624,6.684,17.412,6.734,24.097,0.111l34.325-34.01l5.463,55.151c0.045,0.361,0.104,0.717,0.159,1.074l-11.512,48.133
				L55.09,367.34c-5.211,9.365-2.291,21.332,6.877,27.139c9.5,6.018,22.08,3.195,28.098-6.305l41.158-64.418
				c0.785-1.254,1.471-2.701,1.929-4.182l0.397-1.287l8.674-28.068c0.095,0,0.189,0.006,0.284,0.006
				c0.243,0,0.489-0.018,0.732-0.021l2.634,9.385l-11.808,88.918c-1.43,10.559,5.567,20.611,16.159,22.742
				c11.026,2.217,21.762-4.924,23.98-15.949l17.402-93.506c0.51-2.598,0.522-5.436-0.101-8.184l-0.279-1.23l-8.804-38.811
				c-0.397-6.362-0.847-12.401-1.336-18.155L195.894,53.3l46.526,10.255l56.997-1.5l64.636,22.5l-19.32,48.916l17.5,48.5
				l1.82,68.834l-11.82,27.666l22.5,119l14.68,34.334h28.499V6.559H171.182z M174.324,182.826
				c-6.678-36.523-14.211-48.856-14.167-49.208l11.703-92.102l2.515,7.041l10.675,2.354L174.324,182.826z"/>
		</g>
	</g>
</g>
<g>
</g>
<g>
</g>
<g>
</g>
<g>
</g>
<g>
</g>
<g>
</g>
<g>
</g>
<g>
</g>
<g>
</g>
<g>
</g>
<g>
</g>
<g>
</g>
<g>
</g>
<g>
</g>
<g>
</g>
</svg>
