<?xml version="1.0" encoding="iso-8859-1"?>
<!-- Generator: Adobe Illustrator 19.0.0, SVG Export Plug-In . SVG Version: 6.00 Build 0)  -->
<svg version="1.1" id="Capa_1" xmlns="http://www.w3.org/2000/svg" xmlns:xlink="http://www.w3.org/1999/xlink" x="0px" y="0px"
	 viewBox="0 0 293.723 293.723" style="enable-background:new 0 0 293.723 293.723;" xml:space="preserve">
<g>
	<path d="M293.281,224.269c-1.871-16.971-13.256-56.945-79.715-63.307L196.4,196.06c-1.391,2.83-4.19,4.473-7.144,4.473
		c-1.185,0-2.367-0.264-3.501-0.822c-3.966-1.947-5.59-6.742-3.641-10.707l15.613-31.762c-6.384-2.664-11.964-6.615-16.85-11.506
		l-26.14,23.729c-1.532,1.391-3.455,2.076-5.374,2.076c-2.177,0-4.347-0.883-5.926-2.623c-2.97-3.271-2.725-8.33,0.547-11.301
		l26.956-24.467c-3.725-5.867-6.882-12.352-9.549-19.164l-32.629,14.404c-1.05,0.463-2.147,0.684-3.227,0.684
		c-3.072,0-6.002-1.779-7.322-4.772c-1.784-4.043,0.046-8.766,4.088-10.549L156.31,98.74c-1.687-5.982-3.075-12.035-4.22-17.98
		l-33.619,1.824c-0.147,0.008-0.295,0.012-0.44,0.012c-4.22,0-7.75-3.301-7.981-7.566c-0.239-4.412,3.143-8.182,7.555-8.422
		l31.924-1.733c-3.113-23.586-2.719-42.344-2.705-42.84c0.105-3.813-2.495-7.168-6.213-8.019c-0.383-0.088-9.57-2.147-26.43-2.147
		c-19.333,0-51.201,2.742-93.229,15.805c-3.346,1.039-5.626,4.135-5.626,7.639c0,52.512-4.091,80.426-8.047,107.422
		c-2.103,14.355-4.134,28.221-5.379,44.947c-0.014,0.186-0.028,0.367-0.042,0.553c-0.005,0.07-0.413,0.145-0.418,0.215
		C0.943,195.238,0,202.427,0,210.279c0,0.012,0,0.021,0,0.033c0,0.92,0.361,1.848,0.343,2.787c-0.002,0.107-0.153,0.213-0.155,0.32
		C0.181,213.888,0,214.357,0,214.829c0,0.004,0,0.008,0,0.012v7.889v0.076v0.008v59.041h105v-35.014c0,0,7,1.191,16,2.275v32.738
		h172v-38.572C294,239.177,293.833,229.277,293.281,224.269z M30.978,41.274C45.492,36.993,59,33.683,73,31.437v45.418H30.335
		C30.91,65.855,30.902,53.891,30.978,41.274z M21.617,155.384c17.484,2.018,33.651,9.916,46.109,22.656
		c12.96,13.252,20.585,30.404,21.77,48.752c-31.215-7.627-59.597-10.492-72.785-11.488
		C17.051,191.417,19.007,173.908,21.617,155.384z M89,265.855H76v-0.041v-9.973c0-4.418-3.582-8-8-8s-8,3.582-8,8v9.973v0.041H45
		v-0.041v-9.973c0-4.418-3.582-8-8-8s-8,3.582-8,8v9.973v0.041H16v-34.492c12,0.973,36.386,3.484,62.896,9.461
		c0.947,0.213,2.312,0.498,3.557,0.799c2.374,0.576,4.654,1.209,5.937,1.531C88.919,243.286,89,243.37,89,243.37V265.855z
		 M151,250.886v14.928v0.041h-14v-15.408c4,0.221,8.304,0.365,12.709,0.389c0.43,0.002,1.291,0.006,1.291,0.006V250.886z
		 M183,265.814v0.041h-16v-0.041v-14.43c5,0.123,11,0.223,16,0.297V265.814z M215,265.814v0.041h-16v-0.041v-13.996
		c4,0.016,14,0.021,16,0.016V265.814z M247,265.814v0.041h-16v-0.041v-14.07c6-0.047,11-0.111,16-0.182V265.814z M277,265.855h-14
		v-0.041v-14.518c6-0.107,11-0.215,14-0.303V265.855z"/>
</g>
<g>
</g>
<g>
</g>
<g>
</g>
<g>
</g>
<g>
</g>
<g>
</g>
<g>
</g>
<g>
</g>
<g>
</g>
<g>
</g>
<g>
</g>
<g>
</g>
<g>
</g>
<g>
</g>
<g>
</g>
</svg>
