<?xml version="1.0" encoding="iso-8859-1"?>
<!-- Generator: Adobe Illustrator 18.0.0, SVG Export Plug-In . SVG Version: 6.00 Build 0)  -->
<!DOCTYPE svg PUBLIC "-//W3C//DTD SVG 1.1//EN" "http://www.w3.org/Graphics/SVG/1.1/DTD/svg11.dtd">
<svg version="1.1" id="Capa_1" xmlns="http://www.w3.org/2000/svg" xmlns:xlink="http://www.w3.org/1999/xlink" x="0px" y="0px"
	 viewBox="0 0 395.86 395.86" style="enable-background:new 0 0 395.86 395.86;" xml:space="preserve">
<path d="M395.832,378.704l-5.41-62.17c-0.337-3.875-3.582-6.85-7.472-6.85h-3.381v-32.512c0-33.667-24.135-61.932-57.387-67.207
	l-84.604-13.422c-16.763-2.659-30.839-14.198-36.736-30.113L170.6,84.816V16.505c0-4.142-3.358-7.5-7.5-7.5
	c-34.223,0-62.064,27.842-62.064,62.064v7.592H23.787c-4.142,0-7.5,3.358-7.5,7.5v223.523H12.9c-3.891,0-7.135,2.975-7.472,6.851
	l-5.4,62.17c-0.24,2.756,1.058,5.419,3.374,6.931c2.316,1.511,5.277,1.624,7.703,0.295l14.915-8.177l18.091,8.403
	c2.003,0.931,4.315,0.931,6.318,0l18.371-8.533l18.371,8.533c2.003,0.931,4.316,0.931,6.32-0.001l18.36-8.531l18.37,8.532
	c2.003,0.931,4.316,0.931,6.32-0.001l18.36-8.531l18.37,8.532c2.003,0.931,4.316,0.931,6.32-0.001l18.359-8.531l18.36,8.532
	c2.004,0.931,4.316,0.931,6.32,0l18.359-8.531l18.36,8.532c2.004,0.931,4.317,0.93,6.319,0l18.369-8.532l18.361,8.532
	c2.004,0.931,4.315,0.931,6.321,0l18.359-8.531l18.37,8.532c1.002,0.465,2.08,0.698,3.159,0.698s2.158-0.233,3.16-0.698l18.08-8.401
	l14.902,8.175c2.428,1.331,5.387,1.219,7.705-0.294C394.775,384.125,396.072,381.46,395.832,378.704z M364.569,277.173v32.512
	H118.067c-1.226-15.479-6.226-30.331-14.528-43.339h91.63c26.869,0,48.729-21.859,48.729-48.729v-4.882l75.935,12.046
	C345.754,228.893,364.569,250.927,364.569,277.173z M157.88,93.661l5.626,15.184H145.46l-2.531-15.184H157.88z M169.065,123.845
	l6.487,17.506h-24.673l-2.918-17.506H169.065z M181.109,156.352c0,0,6.236,16.775,6.54,17.506h-31.354l-2.918-17.506H181.109z
	 M196.537,188.858c3.903,4.868,8.511,9.115,13.658,12.6c-4.147,9.923-13.798,16.516-24.913,16.516
	c-12.536,0-23.13-8.975-25.19-21.339l-1.296-7.776H196.537z M116.035,71.069c0-23.399,17.165-42.865,39.564-46.467v54.059h-39.564
	V71.069z M127.723,93.661l2.531,15.184h-24.04c-4.142,0-7.5,3.358-7.5,7.5s3.358,7.5,7.5,7.5h26.54l2.918,17.506H114.34
	c-4.142,0-7.5,3.358-7.5,7.5s3.358,7.5,7.5,7.5h23.831l2.918,17.506h-18.622c-4.142,0-7.5,3.358-7.5,7.5s3.358,7.5,7.5,7.5h21.122
	l1.707,10.242c3.271,19.627,20.087,33.874,39.986,33.874c16.895,0,31.619-9.796,38.294-24.654c1.741,0.64,3.515,1.206,5.321,1.689
	v7.608c0,18.598-15.131,33.729-33.729,33.729H91.697c-16.033-16.512-37.575-26.625-60.41-28.452V93.661H127.723z M31.287,237.968
	c19.712,1.877,38.206,11.073,51.602,25.901c11.53,12.78,18.538,28.824,20.139,45.815H31.287V237.968z M373.738,362.779
	c-2.093-1.147-4.604-1.231-6.768-0.226l-18.361,8.532l-18.37-8.532c-2.004-0.931-4.315-0.931-6.319,0.001l-18.359,8.531
	l-18.36-8.532c-2.004-0.931-4.317-0.93-6.319,0l-18.369,8.532l-18.361-8.532c-2.004-0.931-4.316-0.931-6.32,0l-18.359,8.531
	l-18.36-8.532c-2.004-0.931-4.317-0.931-6.321,0l-18.36,8.532l-18.37-8.532c-2.003-0.931-4.316-0.93-6.32,0l-18.36,8.532
	l-18.37-8.532c-2.003-0.931-4.316-0.93-6.32,0l-18.36,8.532l-18.37-8.532c-2.003-0.93-4.315-0.93-6.318,0l-18.371,8.533
	l-18.371-8.533c-1.003-0.466-2.082-0.698-3.159-0.698c-1.244,0-2.485,0.309-3.605,0.923l-5.95,3.262l3.592-41.355h356.297
	l3.599,41.35L373.738,362.779z"/>
<g>
</g>
<g>
</g>
<g>
</g>
<g>
</g>
<g>
</g>
<g>
</g>
<g>
</g>
<g>
</g>
<g>
</g>
<g>
</g>
<g>
</g>
<g>
</g>
<g>
</g>
<g>
</g>
<g>
</g>
</svg>
