<?xml version="1.0" encoding="iso-8859-1"?>
<!-- Generator: Adobe Illustrator 16.0.0, SVG Export Plug-In . SVG Version: 6.00 Build 0)  -->
<!DOCTYPE svg PUBLIC "-//W3C//DTD SVG 1.1//EN" "http://www.w3.org/Graphics/SVG/1.1/DTD/svg11.dtd">
<svg version="1.1" id="Capa_1" xmlns="http://www.w3.org/2000/svg" xmlns:xlink="http://www.w3.org/1999/xlink" x="0px" y="0px"
	 width="45.818px" height="45.818px" viewBox="0 0 45.818 45.818" style="enable-background:new 0 0 45.818 45.818;"
	 xml:space="preserve">
<g>
	<g>
		<path d="M37.678,25.301c-0.442-1.327-1.687-2.206-3.085-2.206h-1.456v-0.981c0-1.048-0.843-1.935-1.891-1.935h-4.389v-3.066
			c0-0.556-0.29-1.065-0.783-1.321l-6.289-3.276v-2.98c-0.473,0.191-0.989,0.298-1.529,0.298c-0.521,0-1.019-0.099-1.478-0.278
			v3.865c0,0.556,0.289,1.065,0.782,1.321l6.291,3.276v2.162h-3.986c-1.048,0-1.938,0.887-1.938,1.935v0.981h-1.41
			c-1.4,0-2.643,0.879-3.085,2.206l-1.195,3.577c-1.205,3.617-1.205,7.523,0,11.141l1.195,3.581
			c0.443,1.326,1.685,2.218,3.086,2.218h18.074c1.398,0,2.643-0.894,3.085-2.222l1.196-3.585c1.203-3.615,1.203-7.524,0-11.142
			L37.678,25.301z M37.017,35.93c-0.175,1.653-1.571,2.904-3.233,2.904H17.327c-1.666,0-3.059-1.249-3.233-2.905
			c-0.213-2.016,0.004-4.063,0.653-6.011l0.971-2.901c0.358-1.078,1.366-1.798,2.502-1.798h14.67c1.137,0,2.146,0.721,2.504,1.799
			l0.97,2.906C37.013,31.868,37.23,33.915,37.017,35.93z"/>
		<rect x="21.288" y="26.279" width="1.327" height="11.494"/>
		<path d="M17.315,27.808l-0.813,2.445c-0.543,1.629-0.725,3.372-0.547,5.061c0.146,1.388,1.314,2.46,2.708,2.46h0.857V26.279
			h-0.108C18.461,26.279,17.613,26.903,17.315,27.808z"/>
		<path d="M44.306,1.212c-0.152-0.809-0.938-1.336-1.738-1.187L21.903,3.927c0.275,0.549,0.432,1.169,0.432,1.826
			c0,0.4-0.059,0.788-0.167,1.154l20.951-3.955C43.928,2.799,44.458,2.021,44.306,1.212z"/>
		<path d="M14.177,5.753c0-0.125,0.007-0.25,0.018-0.371L2.699,7.552C1.89,7.706,1.36,8.484,1.512,9.292
			c0.136,0.715,0.759,1.213,1.461,1.213c0.092,0,0.185-0.008,0.277-0.026l11.785-2.225C14.499,7.562,14.177,6.694,14.177,5.753z"/>
		<circle cx="18.257" cy="5.753" r="2.094"/>
	</g>
</g>
<g>
</g>
<g>
</g>
<g>
</g>
<g>
</g>
<g>
</g>
<g>
</g>
<g>
</g>
<g>
</g>
<g>
</g>
<g>
</g>
<g>
</g>
<g>
</g>
<g>
</g>
<g>
</g>
<g>
</g>
</svg>
