<?xml version="1.0" encoding="iso-8859-1"?>
<!-- Generator: Adobe Illustrator 19.0.0, SVG Export Plug-In . SVG Version: 6.00 Build 0)  -->
<svg version="1.1" id="Layer_1" xmlns="http://www.w3.org/2000/svg" xmlns:xlink="http://www.w3.org/1999/xlink" x="0px" y="0px"
	 viewBox="0 0 511.997 511.997" style="enable-background:new 0 0 511.997 511.997;" xml:space="preserve">
<g>
	<g>
		<g>
			<path d="M181.362,156.925c1.595,0.94,3.345,1.389,5.071,1.389c3.423,0,6.758-1.76,8.623-4.921l13.436-22.773
				c2.806-4.757,1.225-10.888-3.532-13.694c-4.756-2.804-10.889-1.224-13.694,3.532l-13.436,22.773
				C175.024,147.988,176.605,154.119,181.362,156.925z"/>
			<path d="M171.365,173.868c-4.757-2.805-10.888-1.224-13.694,3.532l-18.81,31.883c-2.806,4.756-1.225,10.887,3.532,13.694
				c1.595,0.94,3.345,1.389,5.071,1.389c3.423,0,6.758-1.76,8.623-4.921l18.81-31.883
				C177.703,182.805,176.122,176.674,171.365,173.868z"/>
			<path d="M456.743,55.252c-73.672-73.67-193.541-73.669-267.213,0.001c-1.096,1.097-2.116,2.267-3.059,3.495l-16.402-10.887
				c-2.288-1.517-5.096-2.027-7.771-1.414c-2.674,0.615-4.979,2.302-6.373,4.665L65.374,204.598
				c-2.701,4.579-1.347,10.472,3.083,13.413l16.566,10.997L29.292,324.63C9.949,345.745-0.44,373.15,0.014,401.936
				c0.461,29.239,12.077,56.705,32.709,77.337c20.632,20.632,48.097,32.248,77.336,32.709c0.605,0.009,1.205,0.014,1.809,0.014
				c28.131-0.001,54.844-10.362,75.518-29.31l262.272-154.729c2.578-1.521,4.961-3.367,7.085-5.489
				C530.414,248.796,530.414,128.924,456.743,55.252z M167.793,70.356l69.476,46.115l-80.376,136.237l-69.475-46.116L167.793,70.356
				z M256.232,105.053l-9.143-6.069c46.079-38.962,116.124-36.552,159.3,6.624c44.498,44.497,45.7,117.537,2.937,163.464
				l-261.64,154.355c-2.583,1.522-4.968,3.37-7.09,5.491c-15.856,15.859-41.66,15.861-57.519,0
				c-15.858-15.858-15.858-41.661,0-57.52c2.119-2.119,3.966-4.503,5.515-7.129l55.862-95.813l10.164,6.748
				c4.78,3.17,11.279,1.606,14.143-3.251l90.554-153.487C262.016,113.887,260.662,107.993,256.232,105.053z M442.603,308.323
				c-0.931,0.93-1.977,1.741-3.107,2.407L176.299,466.004c-0.629,0.371-1.215,0.81-1.748,1.309
				c-36.372,34.002-92.46,33.045-127.686-2.183c-35.229-35.228-36.187-91.314-2.183-127.687c0.511-0.546,0.959-1.147,1.335-1.794
				l54.682-93.821l26.074,17.246L71.34,354.152c-0.667,1.132-1.477,2.176-2.405,3.104c-11.444,11.444-17.747,26.681-17.747,42.902
				s6.303,31.458,17.747,42.902c11.444,11.443,26.681,17.746,42.901,17.746c16.222,0,31.458-6.303,42.902-17.746
				c0.929-0.93,1.973-1.738,3.105-2.405l262.865-155.08c0.795-0.469,1.521-1.046,2.157-1.714
				c24.872-26.091,38.346-60.384,37.939-96.56c-0.406-36.236-14.71-70.272-40.275-95.838C394.965,65.9,360.93,51.596,324.695,51.19
				c-35.236-0.386-68.677,12.374-94.501,36.017l-26.652-17.679c0.043-0.044,0.087-0.088,0.131-0.132
				C269.546,3.524,376.729,3.523,442.6,69.395C508.473,135.268,508.473,242.452,442.603,308.323z"/>
		</g>
	</g>
</g>
<g>
</g>
<g>
</g>
<g>
</g>
<g>
</g>
<g>
</g>
<g>
</g>
<g>
</g>
<g>
</g>
<g>
</g>
<g>
</g>
<g>
</g>
<g>
</g>
<g>
</g>
<g>
</g>
<g>
</g>
</svg>
