<?xml version="1.0" encoding="iso-8859-1"?>
<!-- Generator: Adobe Illustrator 16.0.0, SVG Export Plug-In . SVG Version: 6.00 Build 0)  -->
<!DOCTYPE svg PUBLIC "-//W3C//DTD SVG 1.1//EN" "http://www.w3.org/Graphics/SVG/1.1/DTD/svg11.dtd">
<svg version="1.1" id="Capa_1" xmlns="http://www.w3.org/2000/svg" xmlns:xlink="http://www.w3.org/1999/xlink" x="0px" y="0px"
	 width="188.238px" height="188.237px" viewBox="0 0 188.238 188.237" style="enable-background:new 0 0 188.238 188.237;"
	 xml:space="preserve">
<g>
	<path d="M173.174,88.634c4.308-1.268,8.005,2.174,12.229,0.961c2.67-0.766,3.428-3.521,2.381-5.854
		c-2.658-5.923-12.852-5.931-18.183-4.376c-5.54,1.617-9.988,6.279-11.944,11.614c-0.329,0.897-0.568,1.806-0.765,2.718
		c-16.33-1.262-32.616-3.248-48.943-4.589c10.811-8.237,21.363-16.789,31.237-26.143c3.29-3.117,7.242-6.821,10.913-10.876
		c6.923,2.143,15.022,0.43,19.873-5.341c4.141-4.926-2.205-11.417-7.091-7.091c-1.853,1.641-3.713,2.665-5.603,3.111
		c1.955-3.163,3.432-6.42,4.059-9.696c0.575-3.003-2.8-6.909-5.892-4.53c-3.515,2.705-6.606,6.007-9.556,9.515
		c-1.92-3.174-0.688-6.999,1.95-10.082c1.324-1.547,0.11-4.496-2.157-3.705c-9.617,3.355-10.271,13.337-5.32,20.637
		c-2.859,3.594-5.749,7.151-8.943,10.291c-11.076,10.892-23.56,20.338-35.999,29.626c-0.3-0.286-0.61-0.561-0.908-0.85
		c0.069-2.021,0.138-4.042,0.213-6.06c0.572-15.343,0.085-30.572,0.346-45.824c9.775-0.564,19.476-6.679,20.634-16.879
		c0.355-3.137-3.779-5.151-6.234-3.577c-4.033,2.584-6.143,6.921-10.322,9.436c-1.181,0.71-2.462,1.127-3.781,1.327
		c0.232-5.373,0.586-10.751,1.183-16.143c0.295-2.669-3.289-3.635-4.955-2.052c-4.057,3.854-6.478,9.153-7.892,15.177
		c-2.918-2.155-5.022-5.264-6.036-8.87c-0.094-0.336-0.444-0.655-0.814-0.62c-4.442,0.421-5.374,3.973-4.341,7.949
		c1.259,4.846,5.528,8.808,9.755,11.303c-1.116,14.843,1.503,31.685,1.52,42.914c-6.148-7.532-16.053-19.562-26.117-28.853
		c4.744-8.157,4.44-22.595-4.466-25.953c-2.002-0.755-3.896,0.832-4.545,2.58c-1.653,4.458,1.774,9.016,1.876,13.669
		c0.025,1.147-0.257,2.184-0.668,3.159c-9.363-6.968-18.038-9.807-22.983-2.356c-0.484,0.729-0.365,1.987,0.33,2.558
		c2.99,2.457,6.827,3.295,10.236,5.099c0.971,0.514,1.917,1.083,2.847,1.686c-4.187,1.32-8.649,1.832-12.893,3.083
		c-3.021,0.89-3.268,5.589,0,6.348c6.835,1.588,14.87,0.671,21.458-2.473c2.643,2.519,5.152,5.171,7.575,7.699
		C65.376,67.63,73.1,78.046,81.869,87.518c-11.517-0.561-23.038-1.051-34.548-1.793c-5.857-0.378-11.707-0.875-17.553-1.224
		c-0.99-9.283-9.139-19.368-19.015-17.503c-3.137,0.592-4.297,5.213-1.921,7.277c4.289,3.727,9.485,4.445,11.043,9.839
		c-5.91-0.086-11.816,0.135-17.721,0.977c-3.134,0.447-2.599,5.008,0,5.802c4.967,1.517,10.106,2.665,15.326,3.619
		c-2.205,2.397-5.39,4.056-8.601,5.16c-3.161,1.088-2.654,5.751,0.793,5.857c7.163,0.22,13.786-3.655,17.393-9.523
		c16.282,2.088,33.243,2.32,49.576,2.635c-11.985,8.762-24.007,17.856-34.558,28.205c-6.704-3.646-15.192-3.354-21.848,1.939
		c-2.002,1.592,0.162,4.814,2.413,4.146c4.915-1.46,9.474-1.549,13.269,0.334c-3.454,3.809-6.721,7.77-9.668,11.979
		c-2.789,3.984,3.205,8.148,6.507,5.021c3.323-3.147,6.704-6.199,10.099-9.228c0.78,1.99,1.08,4.186,0.621,6.122
		c-0.446,1.882-3.18,2.167-5.103,4.244c-1.751,1.892-1.237,4.452,0.758,5.885c4.715,3.388,10.845-0.661,12.944-5.233
		c2.385-5.191,1.184-10.845-1.164-15.812c-0.249-0.526-0.536-1.017-0.82-1.511c10.418-8.952,21.089-17.522,31.958-25.908
		c-1.12,15.005-2.388,30.051-2.537,45.009c-9.536,3.544-16.972,12.331-17.985,22.614c-0.353,3.579,4.838,3.798,5.909,0.8
		c2.096-5.867,6.628-10.604,12.183-13.266c0.151,5.291,0.453,10.568,1.018,15.825c0.702,6.527,10.028,6.783,10.344,0
		c0.278-5.954,0.48-11.924,0.721-17.886c1.814,0.353,3.526,1.112,4.616,2.571c2.632,3.527,0.044,8.043,1.273,11.908
		c0.937,2.941,4.479,3.894,6.748,1.782c4.801-4.472,3.641-13.483,0.464-18.65c-2.75-4.475-7.718-6.524-12.717-7.158
		c0.668-17.548,1.274-35.106,1.872-52.661c0.11-0.084,0.22-0.167,0.33-0.251c8.598,7.381,17.864,14.141,26.498,21.293
		c5.961,4.939,11.728,10.086,17.24,15.521c0.035,0.036,0.063,0.078,0.101,0.114c-4.529,6.954-5.084,16.38,0.327,23.24
		c2.126,2.696,5.799-0.303,5.249-3.055c-0.907-4.538-0.856-8.767,0.752-12.36c1.953,2.692,3.911,5.354,6.297,7.597
		c2.95,2.771,8.167,0.903,8.109-3.359c-0.058-4.141-1.868-8.215-4.595-12.093c1.486-0.229,3.016-0.158,4.329,0.411
		c4.053,1.754,4.143,6.753,7.993,8.519c1.836,0.842,4.683,0.723,5.632-1.477c2.703-6.264-3.135-12.875-8.619-15.607
		c-5.237-2.608-10.97-1.893-16.15,0.33c-5.299-5.198-11.311-9.779-15.413-13.308c-5.882-5.061-12.068-9.856-18.203-14.719
		c14.576,1.274,29.119,2.991,43.702,4.111c2.408,7.104,8.558,12.803,16.728,13.541c3.558,0.321,4.1-4.455,1.665-6.146
		c-2.954-2.053-5.71-4.175-7.547-6.703c4.195,0.216,8.395,0.384,12.602,0.431c7.014,0.078,7.006-10.789,0-10.872
		c-4.7-0.056-9.392-0.256-14.079-0.514C167.885,91.511,170.368,89.461,173.174,88.634z"/>
</g>
<g>
</g>
<g>
</g>
<g>
</g>
<g>
</g>
<g>
</g>
<g>
</g>
<g>
</g>
<g>
</g>
<g>
</g>
<g>
</g>
<g>
</g>
<g>
</g>
<g>
</g>
<g>
</g>
<g>
</g>
</svg>
