<?xml version="1.0" encoding="iso-8859-1"?>
<!-- Generator: Adobe Illustrator 19.0.0, SVG Export Plug-In . SVG Version: 6.00 Build 0)  -->
<svg version="1.1" id="Layer_1" xmlns="http://www.w3.org/2000/svg" xmlns:xlink="http://www.w3.org/1999/xlink" x="0px" y="0px"
	 viewBox="0 0 512 512" style="enable-background:new 0 0 512 512;" xml:space="preserve">
<g>
	<g>
		<path d="M255.999,91.625c-90.637,0-164.375,73.739-164.375,164.375c0,90.636,73.739,164.374,164.375,164.374
			s164.375-73.739,164.375-164.374C420.375,165.364,346.637,91.625,255.999,91.625z M255.999,398.118
			c-78.365,0-142.119-63.754-142.119-142.118c0-78.365,63.754-142.119,142.119-142.119s142.119,63.754,142.119,142.119
			C398.118,334.364,334.364,398.118,255.999,398.118z"/>
	</g>
</g>
<g>
	<g>
		<path d="M48.144,244.872H24.058c-6.145,0-11.128,4.983-11.128,11.128c0,6.145,4.983,11.128,11.128,11.128h24.087
			c6.145,0,11.127-4.983,11.127-11.128C59.273,249.856,54.29,244.872,48.144,244.872z"/>
	</g>
</g>
<g>
	<g>
		<path d="M487.942,244.872h-24.087c-6.145,0-11.128,4.983-11.128,11.128c0,6.145,4.983,11.128,11.128,11.128h24.087
			c6.145,0,11.128-4.983,11.128-11.128C499.07,249.856,494.088,244.872,487.942,244.872z"/>
	</g>
</g>
<g>
	<g>
		<path d="M161.71,70.428l-12.043-20.86c-3.073-5.322-9.876-7.147-15.201-4.073c-5.323,3.074-7.147,9.879-4.073,15.201l12.043,20.86
			c2.062,3.57,5.801,5.566,9.648,5.566c1.887,0,3.8-0.482,5.553-1.493C162.96,82.557,164.784,75.751,161.71,70.428z"/>
	</g>
</g>
<g>
	<g>
		<path d="M381.607,451.304l-12.043-20.86c-3.074-5.32-9.875-7.145-15.201-4.073c-5.323,3.074-7.147,9.879-4.073,15.201
			l12.043,20.86c2.062,3.57,5.801,5.566,9.648,5.566c1.887,0,3.8-0.482,5.553-1.493
			C382.857,463.433,384.681,456.627,381.607,451.304z"/>
	</g>
</g>
<g>
	<g>
		<path d="M255.999,0c-6.145,0-11.128,4.983-11.128,11.128v49.946c0,6.145,4.983,11.128,11.128,11.128s11.128-4.983,11.128-11.128
			V11.128C267.128,4.983,262.145,0,255.999,0z"/>
	</g>
</g>
<g>
	<g>
		<path d="M255.999,439.797c-6.145,0-11.128,4.983-11.128,11.128v49.946c0,6.145,4.983,11.128,11.128,11.128
			s11.128-4.983,11.128-11.128v-49.946C267.128,444.78,262.146,439.797,255.999,439.797z"/>
	</g>
</g>
<g>
	<g>
		<path d="M96.826,347.898c-3.073-5.32-9.879-7.146-15.201-4.073L38.37,368.798c-5.323,3.074-7.147,9.879-4.073,15.201
			c2.062,3.57,5.801,5.566,9.648,5.566c1.887,0,3.801-0.482,5.553-1.493L92.754,363.1C98.076,360.026,99.9,353.221,96.826,347.898z"
			/>
	</g>
</g>
<g>
	<g>
		<path d="M477.702,128c-3.073-5.32-9.879-7.147-15.201-4.073L419.246,148.9c-5.323,3.074-7.147,9.879-4.073,15.201
			c2.061,3.57,5.801,5.566,9.648,5.566c1.887,0,3.801-0.482,5.553-1.493l43.255-24.973C478.952,140.128,480.776,133.323,477.702,128
			z"/>
	</g>
</g>
<g>
	<g>
		<path d="M92.754,148.9l-43.255-24.974c-5.324-3.073-12.128-1.25-15.201,4.073c-3.074,5.323-1.25,12.129,4.073,15.202
			l43.255,24.973c1.753,1.012,3.666,1.493,5.553,1.493c3.846,0,7.586-1.996,9.648-5.566C99.9,158.779,98.076,151.974,92.754,148.9z"
			/>
	</g>
</g>
<g>
	<g>
		<path d="M473.63,368.798l-43.255-24.973c-5.325-3.074-12.127-1.249-15.201,4.073c-3.074,5.323-1.25,12.128,4.073,15.201
			l43.255,24.973c1.753,1.012,3.666,1.493,5.553,1.493c3.846,0,7.586-1.996,9.648-5.566
			C480.776,378.677,478.952,371.872,473.63,368.798z"/>
	</g>
</g>
<g>
	<g>
		<path d="M157.637,426.371c-5.324-3.074-12.13-1.25-15.201,4.073l-12.043,20.86c-3.074,5.323-1.25,12.129,4.073,15.201
			c1.753,1.012,3.666,1.493,5.553,1.493c3.846,0,7.587-1.996,9.648-5.566l12.043-20.86
			C164.784,436.249,162.96,429.443,157.637,426.371z"/>
	</g>
</g>
<g>
	<g>
		<path d="M377.534,45.495c-5.324-3.074-12.13-1.249-15.201,4.073l-12.043,20.86c-3.074,5.323-1.25,12.13,4.073,15.201
			c1.753,1.012,3.666,1.493,5.553,1.493c3.846,0,7.587-1.996,9.648-5.566l12.043-20.86
			C384.681,55.373,382.857,48.568,377.534,45.495z"/>
	</g>
</g>
<g>
	<g>
		<path d="M223.351,226.608c-6.213-13.503-19.836-22.228-34.706-22.228c-14.861,0-28.479,8.725-34.694,22.227
			c-2.571,5.584-0.127,12.192,5.455,14.763c5.583,2.568,12.192,0.127,14.763-5.455c2.594-5.635,8.276-9.277,14.476-9.277
			c6.207,0,11.894,3.64,14.488,9.275c1.876,4.076,5.905,6.479,10.116,6.478c1.558,0,3.139-0.327,4.646-1.022
			C223.478,238.801,225.921,232.193,223.351,226.608z"/>
	</g>
</g>
<g>
	<g>
		<path d="M358.047,226.608c-6.215-13.502-19.839-22.227-34.706-22.227c-14.862,0-28.481,8.725-34.694,22.228
			c-2.57,5.584-0.126,12.192,5.456,14.762c1.507,0.693,3.088,1.022,4.646,1.022c4.211,0,8.239-2.401,10.116-6.478
			c2.593-5.634,8.275-9.275,14.476-9.275c6.207,0,11.894,3.64,14.488,9.277c2.572,5.583,9.18,8.025,14.763,5.455
			C358.175,238.801,360.618,232.193,358.047,226.608z"/>
	</g>
</g>
<g>
	<g>
		<path d="M292.795,283.659c-5.914-1.675-12.065,1.754-13.746,7.666c-2.908,10.243-12.387,17.397-23.05,17.397
			s-20.142-7.154-23.05-17.397c-1.68-5.912-7.832-9.342-13.746-7.666c-5.912,1.679-9.343,7.833-7.666,13.746
			c5.613,19.768,23.897,33.574,44.461,33.574c20.564,0,38.848-13.806,44.461-33.574
			C302.139,291.493,298.707,285.338,292.795,283.659z"/>
	</g>
</g>
<g>
</g>
<g>
</g>
<g>
</g>
<g>
</g>
<g>
</g>
<g>
</g>
<g>
</g>
<g>
</g>
<g>
</g>
<g>
</g>
<g>
</g>
<g>
</g>
<g>
</g>
<g>
</g>
<g>
</g>
</svg>
