<?xml version="1.0" encoding="iso-8859-1"?>
<!-- Generator: Adobe Illustrator 18.0.0, SVG Export Plug-In . SVG Version: 6.00 Build 0)  -->
<!DOCTYPE svg PUBLIC "-//W3C//DTD SVG 1.1//EN" "http://www.w3.org/Graphics/SVG/1.1/DTD/svg11.dtd">
<svg version="1.1" id="Capa_1" xmlns="http://www.w3.org/2000/svg" xmlns:xlink="http://www.w3.org/1999/xlink" x="0px" y="0px"
	 viewBox="0 0 423.01 423.01" style="enable-background:new 0 0 423.01 423.01;" xml:space="preserve">
<path d="M412.501,423.007L253.248,147.171V0H137.229v85h101.019v62.171l-64.533,111.775l-34.242-59.304L10.508,423.01h244.93v-0.003
	H412.501z M152.229,70V15h86.019v55H152.229z M104.975,408.007l90.211-156.251l19.982,40.028l30.58-28.227l30.58,28.227
	l19.981-40.027l90.211,156.25H104.975z M204.177,236.183l41.571-72.003l41.572,72.004l-15.491,31.031l-26.08-24.073l-26.08,24.073
	L204.177,236.183z M139.472,229.641l25.582,44.305L87.653,408.01H36.489L139.472,229.641z"/>
<g>
</g>
<g>
</g>
<g>
</g>
<g>
</g>
<g>
</g>
<g>
</g>
<g>
</g>
<g>
</g>
<g>
</g>
<g>
</g>
<g>
</g>
<g>
</g>
<g>
</g>
<g>
</g>
<g>
</g>
</svg>
